<svg width="1200" height="630" viewBox="0 0 1200 630" fill="none" xmlns="http://www.w3.org/2000/svg">
  <!-- Background -->
  <rect width="1200" height="630" fill="#f8fafc"/>
  
  <!-- Main Content Area -->
  <rect x="60" y="60" width="1080" height="510" fill="white" rx="20" stroke="#e2e8f0" stroke-width="2"/>
  
  <!-- Cat Icon -->
  <g transform="translate(120, 120)">
    <!-- Cat body -->
    <ellipse cx="50" cy="80" rx="40" ry="50" fill="#6366f1"/>
    <!-- Cat head -->
    <circle cx="50" cy="30" r="35" fill="#6366f1"/>
    <!-- Cat ears -->
    <path d="M25 10 L20 -5 L35 5 Z" fill="#6366f1"/>
    <path d="M75 10 L80 -5 L65 5 Z" fill="#6366f1"/>
    <!-- Cat eyes -->
    <circle cx="40" cy="25" r="4" fill="white"/>
    <circle cx="60" cy="25" r="4" fill="white"/>
    <circle cx="40" cy="25" r="2" fill="#1e293b"/>
    <circle cx="60" cy="25" r="2" fill="#1e293b"/>
    <!-- Cat nose -->
    <path d="M50 32 L47 37 L53 37 Z" fill="#ec4899"/>
    <!-- Cat mouth -->
    <path d="M50 37 Q45 42 40 40" stroke="#1e293b" stroke-width="2" fill="none"/>
    <path d="M50 37 Q55 42 60 40" stroke="#1e293b" stroke-width="2" fill="none"/>
    <!-- Cat tail -->
    <path d="M90 60 Q110 40 105 80" stroke="#6366f1" stroke-width="8" fill="none"/>
  </g>
  
  <!-- Title -->
  <text x="280" y="200" font-family="Arial, sans-serif" font-size="64" font-weight="bold" fill="#1e293b">ClearCat</text>
  
  <!-- Subtitle -->
  <text x="280" y="250" font-family="Arial, sans-serif" font-size="28" fill="#64748b">AI-Powered Expense Tracking</text>
  
  <!-- Description -->
  <text x="280" y="310" font-family="Arial, sans-serif" font-size="24" fill="#64748b">Let our clever AI cat instantly sort</text>
  <text x="280" y="340" font-family="Arial, sans-serif" font-size="24" fill="#64748b">your spending from bank statements</text>
  
  <!-- Call to action -->
  <rect x="280" y="380" width="200" height="50" rx="25" fill="#fbbf24"/>
  <text x="380" y="410" font-family="Arial, sans-serif" font-size="18" font-weight="bold" fill="#1e293b" text-anchor="middle">Join Waitlist</text>
  
  <!-- Decorative paw prints -->
  <g fill="#6366f1" opacity="0.1">
    <g transform="translate(900, 150)">
      <ellipse cx="8" cy="8" rx="3" ry="5"/>
      <ellipse cx="15" cy="6" rx="3" ry="5"/>
      <ellipse cx="22" cy="8" rx="3" ry="5"/>
      <ellipse cx="15" cy="18" rx="6" ry="8"/>
    </g>
    <g transform="translate(950, 300)">
      <ellipse cx="8" cy="8" rx="3" ry="5"/>
      <ellipse cx="15" cy="6" rx="3" ry="5"/>
      <ellipse cx="22" cy="8" rx="3" ry="5"/>
      <ellipse cx="15" cy="18" rx="6" ry="8"/>
    </g>
    <g transform="translate(850, 400)">
      <ellipse cx="8" cy="8" rx="3" ry="5"/>
      <ellipse cx="15" cy="6" rx="3" ry="5"/>
      <ellipse cx="22" cy="8" rx="3" ry="5"/>
      <ellipse cx="15" cy="18" rx="6" ry="8"/>
    </g>
  </g>
</svg>